# xmcd
#
# Track frame offsets: 
#        150
#        17930
#        33626
#        57531
#        72225
#        86141
#        110367
#        124347
#        152439
#        164885
#        182837
#        211734
#
# Disc length: 3125 seconds
#
# Revision: 2
# Processed by: cddbd v1.5.2PL0 Copyright (c) Steve Scherf et al.
# Submitted via: ExactAudioCopy v0.99pb4
#
DISCID=ae0c330c
DTITLE=Angela Brown - If I hadn't'a been high
DYEAR=1900
DGENRE=Blues
TTITLE0=Have a talk with good
TTITLE1=I don't want maybe
TTITLE2=Sunday kind of love
TTITLE3=Twang my note
TTITLE4=Back door hit 'cha
TTITLE5=So long ago
TTITLE6=Breaking down the hotel chairs
TTITLE7=Ball and chain
TTITLE8=Moan your moaners
TTITLE9=Something's got a hold on me
TTITLE10=If I hadn't'a been high
TTITLE11=Have a talk wit good - long version -
EXTD=
EXTT0=
EXTT1=
EXTT2=
EXTT3=
EXTT4=
EXTT5=
EXTT6=
EXTT7=
EXTT8=
EXTT9=
EXTT10=
EXTT11=
PLAYORDER=
